<?xml version="1.0" encoding="UTF-8"?>
<svg width="19px" height="20px" viewBox="0 0 19 20" version="1.1" xmlns="http://www.w3.org/2000/svg" xmlns:xlink="http://www.w3.org/1999/xlink">
    <!-- Generator: Sketch 51.3 (57544) - http://www.bohemiancoding.com/sketch -->
    <title>wp-helpkit-icon</title>
    <desc>Created with Sketch.</desc>
    <defs></defs>
    <g id="WP-HelpKit-—-Back-End" stroke="none" stroke-width="1" fill="none" fill-rule="evenodd">
        <g id="Dashboard" transform="translate(-11.000000, -231.000000)" fill="#EEEEEE">
            <g id="wp-helpkit-icon" transform="translate(11.000000, 231.000000)">
                <path d="M14.4335308,12.1123295 C14.4335308,12.7287723 14.1054378,13.2992552 13.5704664,13.6064252 L11.6364536,14.7250968 C11.489327,14.810186 11.3052653,14.7040171 11.3052653,14.5340607 L11.3052653,11.493797 L6.79155449,11.493797 L6.79155449,14.5340607 C6.79155449,14.7040171 6.60749278,14.810186 6.46036618,14.7250968 L4.52632729,13.6064252 C3.99138203,13.2992552 3.66330212,12.7287723 3.66330212,12.1123295 L3.66330212,7.88695544 C3.66330212,7.27049957 3.99138203,6.70002973 4.52632729,6.39284663 L6.46049679,5.27588605 C6.60762338,5.19092745 6.79155449,5.29710937 6.79155449,5.46700043 L6.79155449,8.4595672 L11.3052653,8.4595672 L11.3052653,5.46700043 C11.3052653,5.29710937 11.4891964,5.19092745 11.636323,5.27588605 L13.5704664,6.39284663 C14.1054378,6.70002973 14.4335308,7.27049957 14.4335308,7.88695544 L14.4335308,12.1123295 Z M16.6479004,3.9390649 L10.4978387,0.388318226 C9.60102603,-0.129439409 8.4961203,-0.129439409 7.59932066,0.388318226 L1.44924598,3.9390649 C0.552446339,4.4568356 0,5.41371356 0,6.44925496 L0,13.5507483 C0,14.5862766 0.552446339,15.5431546 1.44924598,16.0609253 L7.59932066,19.611672 C8.4961203,20.1294427 9.60102603,20.1294427 10.4978387,19.611672 L16.6479004,16.0609253 C17.5447,15.5431546 18.0971594,14.5862766 18.0971594,13.5507483 L18.0971594,6.44925496 C18.0971594,5.41371356 17.5447,4.4568356 16.6479004,3.9390649 Z"></path>
            </g>
        </g>
    </g>
</svg>